<?xml version="1.0" encoding="UTF-8" standalone="no"?>
<!DOCTYPE svg PUBLIC "-//W3C//DTD SVG 1.1//EN" "http://www.w3.org/Graphics/SVG/1.1/DTD/svg11.dtd">
<svg width="100%" height="100%" viewBox="0 0 24 24" version="1.1" xmlns="http://www.w3.org/2000/svg" xmlns:xlink="http://www.w3.org/1999/xlink" xml:space="preserve" xmlns:serif="http://www.serif.com/" style="fill-rule:evenodd;clip-rule:evenodd;stroke-linejoin:round;stroke-miterlimit:2;">
    <path d="M17.112,15.059L16.024,15.059L15.647,14.682C17.037,13.076 17.801,11.022 17.797,8.898C17.797,4.017 13.78,-0 8.899,-0C8.899,-0 8.898,-0 8.898,0C4.017,0 -0,4.017 0,8.898C-0,8.898 -0,8.899 -0,8.899C-0,13.78 4.017,17.797 8.898,17.797C11.109,17.797 13.128,16.989 14.682,15.654L15.059,16.031L15.059,17.112L21.904,23.944L23.944,21.904L17.112,15.059ZM8.898,15.059C5.519,15.058 2.738,12.277 2.738,8.898C2.738,5.518 5.519,2.737 8.899,2.737C8.899,2.737 8.9,2.737 8.9,2.737C12.28,2.737 15.061,5.518 15.061,8.898C15.061,12.278 12.28,15.059 8.9,15.059L8.898,15.059Z" style="fill:white;fill-rule:nonzero;"/>
</svg>
